<svg id="Layer_1" data-name="Layer 1" xmlns="http://www.w3.org/2000/svg" viewBox="0 0 456.75 128.69"><defs><style>.cls-1{fill:#fff;}</style></defs><path class="cls-1" d="M163.85,73.25h4.25V51.41H155.43l-1.2,6.73H160v2.6c0,3.66-1.89,5.9-5,5.9-3.25,0-5.32-1.3-5.32-6V43.26c0-4.72,2.07-6,5.32-6,2.95,0,5,1.77,5,7.26h8.14C167.81,34.82,163.32,30,155,30c-7.91,0-13.46,3.78-13.46,14.28V59.56c0,10.5,5.55,14.28,13.46,14.28,3.07,0,5.43-1.65,7.61-4.13Zm35.89,0,1.2-7.2H185.58V54.83h10.2l1.2-7.2h-11.4v-9.8h13.56l1.21-7.2H177.43V73.25Zm8.86-13.69c0,10.5,5.55,14.28,13.46,14.28s13.46-3.78,13.46-14.28V44.32C235.52,33.82,230,30,222.06,30S208.6,33.82,208.6,44.32Zm8.15-16.3c0-4.72,2.06-6,5.31-6s5.31,1.3,5.31,6V60.62c0,4.72-2.07,6-5.31,6s-5.31-1.3-5.31-6Zm55.61,30-8-19c4.54-1.71,6.43-5.55,6.43-10.86,0-8-4.66-12.75-14.46-12.75H244.49V73.25h8.15V55.89h3.89l7.09,17.36ZM252.64,37.36h4.19c3.6,0,5.78,1.77,5.78,5.9s-2.18,5.91-5.78,5.91h-4.19Zm48.64,35.89h4.25V51.41H293.46l-1.2,6.73h5.13v2.6c0,3.66-1.89,5.9-5,5.9-3.25,0-5.31-1.3-5.31-6V43.26c0-4.72,2.06-6,5.31-6,2.95,0,5,1.77,5,7.26h8.14c-.29-9.68-4.78-14.46-13.1-14.46C284.52,30,279,33.82,279,44.32V59.56c0,10.5,5.55,14.28,13.46,14.28,3.07,0,5.43-1.65,7.61-4.13Zm35.89,0,1.2-7.2H323V54.83h10.2l1.2-7.2H323v-9.8h13.56l1.21-7.2H314.86V73.25Zm35.31,0V54.83h9.67l1.2-7.2H372.48v-9.8H385l1.21-7.2H364.33V73.25Zm19.71-13.69c0,10.5,5.55,14.28,13.46,14.28s13.46-3.78,13.46-14.28V44.32c0-10.5-5.55-14.28-13.46-14.28s-13.46,3.78-13.46,14.28Zm8.15-16.3c0-4.72,2.07-6,5.31-6s5.32,1.3,5.32,6V60.62c0,4.72-2.07,6-5.32,6s-5.31-1.3-5.31-6ZM434.7,30.63H426l10.45,20.19L425,73.25h8.79l7.09-15,7.08,15h8.8L445.38,50.82l10.33-20.19H447l-6.14,12.75Z" transform="translate(0.03)"/><path class="cls-1" d="M159.8,103.54c0,4.73-3.11,8.37-9.17,8.37-6.41,0-8.61-2.42-8.61-8.07V91.67h4.55V103.5c0,3.37,1,4.93,4.32,4.93s4.36-1.79,4.36-5V91.67h4.55Z" transform="translate(0.03)"/><path class="cls-1" d="M179,111.53V91.67h4l9.06,11.79a5.7,5.7,0,0,1,1,1.78V91.67H197v19.86h-4.05l-9-11.63a3.69,3.69,0,0,1-1-1.71v13.34Z" transform="translate(0.03)"/><polygon class="cls-1" points="226.26 94.74 223.12 94.89 223.12 108.43 226.26 108.58 226.26 111.53 215.38 111.53 215.38 108.61 218.57 108.43 218.57 94.89 215.46 94.74 215.46 91.67 226.26 91.67 226.26 94.74"/><path class="cls-1" d="M251.66,105a6.83,6.83,0,0,1,.26,1.7,5.3,5.3,0,0,1,.34-1.7l4.85-13.31h4.63l-8.15,19.86h-4.21l-7.47-19.86h5.27Z" transform="translate(0.03)"/><polygon class="cls-1" points="283.11 95.08 283.11 99.75 291.25 99.75 291.25 103.16 283.11 103.16 283.11 108.12 292.28 108.12 292.62 111.53 278.56 111.53 278.56 91.67 292.58 91.67 292.24 95.08 283.11 95.08"/><path class="cls-1" d="M318.05,95.08h-2.43v6.45h4.52a5.8,5.8,0,0,0,1.4-3.68c0-1.82-1-2.77-3.49-2.77m4.66,16.45-4.17-6.59h-2.92v6.59h-4.54V91.67h7.65c4.89,0,7.28,2,7.28,5.65,0,2.05-1,4.09-3.3,6.37l5.2,7.84Z" transform="translate(0.03)"/><path class="cls-1" d="M358.79,105.66c0,3.22-2.61,6.25-7.77,6.25a15.62,15.62,0,0,1-7.13-1.63l1.22-3.37a15.91,15.91,0,0,0,6.06,1.48c2.28,0,3.26-1.1,3.26-2.2s-.57-1.93-3.52-2.73c-4.82-1.33-6.15-3-6.15-6.18,0-3.64,3.11-6,7.28-6a14.36,14.36,0,0,1,6.52,1.37l-1.13,3.26a14.7,14.7,0,0,0-5.31-1.14c-2.05,0-3,.87-3,2.12s.31,1.94,3.11,2.77c5.27,1.41,6.52,3.11,6.52,6" transform="translate(0.03)"/><polygon class="cls-1" points="386.98 94.74 383.83 94.89 383.83 108.43 386.98 108.58 386.98 111.53 376.1 111.53 376.1 108.61 379.29 108.43 379.29 94.89 376.18 94.74 376.18 91.67 386.98 91.67 386.98 94.74"/><polygon class="cls-1" points="409.49 95.08 403.01 95.08 403.31 91.67 420.48 91.67 420.22 95.08 414.04 95.08 414.04 111.53 409.49 111.53 409.49 95.08"/><polygon class="cls-1" points="434.73 91.67 440 91.67 444.69 99.75 449.7 91.67 454.25 91.67 446.63 103.42 446.63 111.53 442.08 111.53 442.08 103.61 434.73 91.67"/><path class="cls-1" d="M95.57,110.93,89.08,34.56,77,15.74a56.22,56.22,0,0,1,18.58,95.19M51.63,124.15V61.5h5.54V94.41h4.15V61.5h5.54v62.65a54,54,0,0,1-15.24,0M73.68,10.6,66.87,0V57.35H61.33V48.58H57.18v8.77H51.64V20.26L31.4,51.55l-7.48,60.24a56.09,56.09,0,0,1-20-43.05c0-30.9,24.77-55.95,55.32-55.95l.76,0,2.11-4c-.95,0-1.9-.07-2.87-.07C26.51,8.79,0,35.63,0,68.74s26.54,60,59.28,60,59.29-26.84,59.29-59.95A59.84,59.84,0,0,0,73.68,10.6" transform="translate(0.03)"/></svg>