<svg xmlns="http://www.w3.org/2000/svg" version="1.1" xmlns:xlink="http://www.w3.org/1999/xlink" xmlns:svgjs="http://svgjs.dev/svgjs" width="1000" height="1125" viewBox="0 0 1000 1125"><g transform="matrix(1,0,0,1,1.7053025658242404e-13,0)"><svg viewBox="0 0 320 360" data-background-color="#ffffff" preserveAspectRatio="xMidYMid meet" height="1125" width="1000" xmlns="http://www.w3.org/2000/svg" xmlns:xlink="http://www.w3.org/1999/xlink"><g id="tight-bounds" transform="matrix(1,0,0,1,0,0)"><svg viewBox="0 0 320 360" height="360" width="320"><g><svg></svg></g><g><svg viewBox="0 0 320 360" height="360" width="320"><g><path d="M20.961 227.22l3.726 4.658-1.863-6.056c-0.466-2.795-3.726 0.466-1.863 1.398M25.153 224.425c1.397 2.329 2.795 4.658 2.795 6.987 0 3.261 2.795 4.658 5.123 5.589-3.261-3.726-5.124-13.974-7.918-12.576M204.017 26.929c7.918 0 15.371-0.932 23.756 0.931 20.495 5.124 37.729 15.371 49.374 29.811l32.606 52.169c1.397 13.042 4.192 27.482 3.726 43.319 3.261 0 2.795-4.658 6.521-5.59-3.726 9.316-5.59 20.961-6.521 34.469-2.329-7.453 0-18.632 0.466-24.687-3.261 5.124-5.124 1.397-5.124-0.932 0.466-3.726-1.397-3.261-2.795-4.658-5.124-4.658-8.384-9.782-12.11-17.7 2.329-6.055 2.795-14.905-4.658-19.563-2.329-1.397-5.124-3.726-6.521-7.453-1.863-5.124-5.124-11.179-4.193-19.097 0.466-2.329-6.987 5.124-11.179 1.863-18.166-12.576-36.332-27.016-58.224-39.127-11.645 0-20.029-4.192-24.221-9.316-3.726-4.658-0.932-10.713 4.658-11.179 3.261 0 6.987-0.932 9.782 0.932 0.466-1.863 2.329-4.192 4.657-4.192M157.904 16.215l0.932 0.466c4.658 0.932 6.987 7.453 12.11 5.124 0 3.261 0.466 6.521-0.466 8.85-1.397 3.726-5.59 3.726-8.85 3.726-31.208-1.863-49.374 11.179-68.471 22.358-5.124 3.261-10.713 5.59-14.906 9.782-20.029 18.632-41.921 35.866-47.045 70.335l-4.192 38.195c-0.466 4.192-5.124 8.384-4.192 13.508l3.26 22.824c-3.261-3.261-5.124 0.932-4.192 2.795 0.466 1.397 2.329 6.055 5.124 1.863 3.726 6.987 7.453 20.495 12.576 26.55 15.837 18.632 36.332 35.4 53.101 52.169 4.192-0.932 7.453-0.932 8.384-3.727 1.397 2.795-1.397 5.59-3.726 6.056 7.453 4.658 15.837 8.85 27.016 9.781 14.44 0.932 27.948 3.261 40.524 6.522 6.521-1.863 13.042-2.795 20.029-3.261 2.329 0 3.726-3.726 6.521-4.658l0.466-4.658c2.795 4.192 2.329-1.397 0.466-4.192 3.261 2.795 4.192 5.124 5.589 6.987 0-1.397 3.726-6.521 3.727-0.466l0.931-6.055c1.397-0.932 1.863 5.124 3.261 0.931 1.397-4.192 4.192-0.932 6.987-2.329-0.932 1.863-0.466 5.59 2.794 3.261l3.727-3.261c2.329 5.59 6.055 3.261 7.918 2.329 20.495-13.042 40.99-28.413 60.553-43.784l-0.466 6.055 2.329-7.453c2.329 2.329 4.192 0.466 5.124-0.931 2.795-4.658 6.521-9.316 12.577-13.508-7.453 20.029-16.303 35.866-27.482 48.908l-4.658 5.59c0 3.261-0.932 7.453-4.658 7.918-1.863 0.466-5.59-0.932-8.384 1.863-1.397 1.863 3.261 5.59-0.466 2.795-3.261-2.329-6.521 0-10.248 0.932-2.795 0.932 1.863 3.726 2.795 5.589 0.932 1.863 1.863 3.726 1.398 6.056l-5.124-5.59c-6.055 3.261-9.782 9.316-14.906 13.974-2.329 1.863-1.397 5.124-1.397 7.918-3.261 0-6.987-0.932-8.85 0.932-1.397 1.863-0.932 4.658-0.932 7.453-4.658-0.466-5.124-7.453-9.315-6.056-4.192 0.932-8.85 1.397-12.577 3.727 2.795 5.59-4.658 2.329-3.726 3.26-6.987-4.192-13.042-7.453-20.495-4.658-15.837-5.124-35.4-2.795-49.84-0.931 0-2.329 0.466-4.658-0.466-5.124-0.932 2.329-3.726 1.397-3.26 1.397-8.85-6.055-17.7-9.782-27.016-14.905-8.384 0.932-16.303-3.261-18.632-5.59-6.521-6.055-13.974-2.795-20.029-4.192-13.042-3.261-17.7-16.769-19.098-26.084-0.932-4.658-4.658-6.521-6.055-6.056-6.055-19.563-15.371-37.263-22.824-55.429-1.863-4.658-1.397-9.316-1.397-14.44 2.329 0.932 4.658 0.466 4.192-2.794-2.329-15.371-7.918-27.016-13.974-38.195 3.261-15.837 3.726-34.469 11.179-48.443 6.521-12.576 18.632-19.098 27.016-29.811 2.795-3.726 2.795-8.85 5.59-12.11 9.316-9.316 18.632-19.098 28.879-27.482 4.658-3.726 10.247 0 17.234-1.397 2.329-8.384 11.645-15.837 20.495-13.508 3.726 0.932 11.179-8.85 13.508-9.782 3.726-1.397 1.863 3.726 1.863 6.987 8.85-6.987 20.961-10.713 32.14-14.906" fill="#8d021f" fill-rule="nonzero" stroke="none" stroke-width="1" stroke-linecap="butt" stroke-linejoin="miter" stroke-miterlimit="10" stroke-dasharray="" stroke-dashoffset="0" font-family="none" font-weight="none" font-size="none" text-anchor="none" style="mix-blend-mode: normal" data-fill-palette-color="tertiary"></path></g><g transform="matrix(1,0,0,1,64,92.51258285727894)"><svg viewBox="0 0 192 174.9748342854421" height="174.9748342854421" width="192"><g><svg viewBox="0 0 192 174.9748342854421" height="174.9748342854421" width="192"><g><svg viewBox="0 0 192 174.9748342854421" height="174.9748342854421" width="192"><g id="textblocktransform"><svg viewBox="0 0 192 174.9748342854421" height="174.9748342854421" width="192" id="textblock"><g><svg viewBox="0 0 192 174.9748342854421" height="174.9748342854421" width="192"><g transform="matrix(1,0,0,1,0,0)"><svg width="192" viewBox="44.932005381814825 -15.074660108486778 45.62404461818516 41.57847010848677" height="174.9748342854421" data-palette-color="#8d021f"><path d="M60.839 23.513v0c-0.041 0.03-0.084 0.05-0.13 0.06-0.045 0.011-0.133 0.031-0.263 0.062v0c-0.305 0.071-0.674 0.105-1.105 0.103-0.425-0.004-0.846-0.033-1.262-0.087-0.423-0.052-0.791-0.134-1.105-0.246-0.313-0.112-0.518-0.225-0.613-0.34v0c-0.098-0.306-0.185-0.621-0.261-0.946-0.077-0.331-0.151-0.649-0.221-0.954v0c-0.572-2.461-0.987-5.072-1.246-7.832-0.258-2.76-0.334-5.795-0.227-9.105v0c0.02-0.326 0.024-0.738 0.01-1.234-0.011-0.49-0.026-1.024-0.043-1.602v0c-0.429 0.538-0.898 1.348-1.406 2.432-0.516 1.078-1.029 2.33-1.54 3.756-0.517 1.427-1.003 2.974-1.457 4.64-0.455 1.666-0.836 3.339-1.143 5.019-0.303 1.672-0.517 3.31-0.645 4.914-0.12 1.602-0.088 3.052 0.098 4.351v0c-1.124-0.067-1.927-0.206-2.407-0.416-0.474-0.212-0.762-0.538-0.864-0.98v0c-0.092-0.396-0.102-0.982-0.029-1.759 0.073-0.777 0.214-1.713 0.425-2.809 0.206-1.088 0.485-2.313 0.84-3.676 0.353-1.369 0.749-2.843 1.189-4.424v0c0.512-1.803 1.026-3.507 1.542-5.112 0.518-1.599 1.05-3.064 1.597-4.395 0.548-1.325 1.114-2.497 1.698-3.516 0.586-1.012 1.211-1.828 1.874-2.448v0c0.305-0.071 0.736-0.089 1.291-0.054 0.549 0.037 1.096 0.108 1.642 0.214 0.543 0.1 1.034 0.222 1.471 0.366 0.436 0.138 0.695 0.28 0.776 0.426v0c-0.163 0.681-0.309 1.687-0.438 3.017-0.137 1.325-0.238 2.817-0.305 4.475-0.06 1.657-0.082 3.4-0.067 5.232 0.023 1.836 0.113 3.577 0.27 5.224v0c0.221-1.318 0.514-2.707 0.879-4.167 0.365-1.461 0.772-2.921 1.22-4.38 0.448-1.459 0.921-2.883 1.42-4.273 0.5-1.382 1.007-2.66 1.521-3.834 0.514-1.174 1.006-2.208 1.476-3.104 0.476-0.898 0.926-1.581 1.351-2.049v0c0.305-0.071 0.732-0.088 1.281-0.052 0.556 0.035 1.106 0.106 1.651 0.212 0.543 0.1 1.034 0.222 1.471 0.366 0.436 0.138 0.695 0.28 0.777 0.425v0c-0.411 1.41-0.67 3.078-0.777 5.006-0.108 1.921-0.114 3.911-0.019 5.97 0.095 2.059 0.274 4.081 0.537 6.065 0.27 1.984 0.582 3.742 0.939 5.275v0c0.118 0.506 0.24 1.032 0.367 1.578 0.128 0.552 0.281 1.119 0.457 1.701v0c-0.305 0.071-0.681 0.117-1.128 0.139-0.447 0.022-0.886 0.014-1.319-0.022-0.439-0.035-0.841-0.099-1.205-0.193-0.369-0.085-0.641-0.21-0.816-0.374v0c-0.098-0.306-0.185-0.621-0.261-0.946-0.077-0.331-0.151-0.649-0.222-0.955v0c-0.572-2.461-0.987-5.072-1.245-7.831-0.258-2.76-0.334-5.795-0.228-9.105v0c0.02-0.326 0.024-0.765 0.012-1.317-0.018-0.55-0.039-1.124-0.061-1.721v0c-0.539 0.447-1.098 1.196-1.675 2.248-0.578 1.045-1.123 2.28-1.633 3.706-0.517 1.427-0.989 2.988-1.416 4.682-0.428 1.694-0.77 3.399-1.029 5.116-0.26 1.71-0.424 3.387-0.493 5.032-0.068 1.652 0.006 3.133 0.222 4.446zM85.159 8.124v0c-0.525-0.788-1.07-1.887-1.634-3.297-0.564-1.411-1.098-2.962-1.601-4.654v0c-1.174 0.919-2.335 1.869-3.483 2.851-1.143 0.978-2.169 1.783-3.078 2.413v0c0.47 2.531 1.011 4.791 1.622 6.779 0.607 1.991 1.296 3.867 2.07 5.627v0c-0.83 0.305-1.619 0.402-2.366 0.291-0.753-0.107-1.538-0.348-2.357-0.723v0c-0.05-0.399-0.13-0.899-0.242-1.498-0.12-0.601-0.266-1.325-0.438-2.172-0.172-0.847-0.379-1.83-0.622-2.951-0.248-1.117-0.541-2.416-0.879-3.896v0c-0.793 0.144-1.448 0.052-1.964-0.278v0c0.043-0.141 0.2-0.361 0.472-0.663 0.272-0.301 0.62-0.662 1.045-1.081v0l-0.233-1.143c-0.285-1.268-0.531-2.334-0.738-3.198-0.207-0.863-0.444-1.687-0.71-2.471-0.266-0.784-0.589-1.634-0.968-2.551-0.381-0.908-0.87-2.056-1.467-3.445v0c0.887-0.375 1.834-0.506 2.84-0.391 1.011 0.111 2.007 0.396 2.987 0.857v0c-0.018 0.333 0 0.805 0.055 1.417 0.056 0.612 0.15 1.33 0.283 2.155 0.124 0.823 0.278 1.733 0.464 2.732 0.179 1.002 0.361 2.067 0.544 3.195v0c1.059-0.923 2.141-1.848 3.244-2.777 1.098-0.925 2.089-1.722 2.973-2.391v0c-0.313-1.202-0.595-2.388-0.846-3.558-0.257-1.167-0.462-2.256-0.616-3.267-0.155-1.002-0.264-1.904-0.324-2.704-0.061-0.801-0.054-1.427 0.022-1.878v0c0.2-0.109 0.496-0.206 0.887-0.291 0.392-0.085 0.802-0.15 1.229-0.194 0.436-0.043 0.85-0.054 1.24-0.034 0.394 0.026 0.693 0.091 0.898 0.194v0c-0.124 0.547-0.187 1.186-0.188 1.917 0.004 0.727 0.057 1.528 0.161 2.404 0.113 0.878 0.266 1.806 0.46 2.782 0.192 0.986 0.424 1.981 0.694 2.987v0c0.597 0.091 1.064 0.388 1.401 0.893v0c0.24 0.361 0.386 0.741 0.435 1.14v0c-0.192 0.072-0.375 0.158-0.549 0.258-0.179 0.104-0.369 0.21-0.569 0.319v0c0.357 1.22 0.738 2.417 1.143 3.589 0.396 1.17 0.804 2.264 1.226 3.281 0.422 1.017 0.832 1.933 1.232 2.748 0.394 0.819 0.759 1.481 1.096 1.986v0c0.126 0.189 0.231 0.335 0.316 0.438 0.083 0.113 0.16 0.198 0.23 0.255v0c-0.427 0.261-0.773 0.391-1.037 0.392-0.27 0.004-0.498-0.032-0.685-0.109-0.19-0.081-0.371-0.165-0.541-0.252-0.165-0.091-0.356-0.119-0.574-0.086v0c-0.17 0.033-0.379-0.016-0.627-0.147-0.253-0.128-0.505-0.3-0.754-0.518-0.251-0.209-0.481-0.433-0.688-0.672-0.216-0.24-0.38-0.444-0.491-0.61z" opacity="1" transform="matrix(1,0,0,1,0,0)" fill="#8d021f" class="wordmark-text-0" data-fill-palette-color="primary" id="text-0"></path></svg></g></svg></g></svg></g></svg></g><g></g></svg></g></svg></g></svg></g><defs></defs></svg><rect width="320" height="360" fill="none" stroke="none" visibility="hidden"></rect></g></svg></g></svg>